<svg width="22" height="22" viewBox="0 0 22 22" fill="none" xmlns="http://www.w3.org/2000/svg">
<path d="M21.9398 6.46806C21.8883 5.29912 21.6992 4.49548 21.4284 3.79911C21.1491 3.05994 20.7193 2.39816 20.1563 1.84802C19.6061 1.28931 18.94 0.855178 18.2094 0.580191C17.509 0.309402 16.7095 0.12037 15.5406 0.0688306C14.3629 0.0129267 13.989 0 11.0021 0C8.01523 0 7.64136 0.0129267 6.46805 0.0644657C5.29911 0.116005 4.49547 0.305205 3.79928 0.575827C3.05994 0.855178 2.39815 1.28495 1.84801 1.84802C1.28931 2.39816 0.855345 3.0643 0.580191 3.79492C0.309401 4.49548 0.120369 5.29475 0.0688305 6.4637C0.0129267 7.64137 0 8.01524 0 11.0021C0 13.9891 0.0129267 14.3629 0.0644656 15.5362C0.116005 16.7052 0.305204 17.5088 0.575994 18.2052C0.855345 18.9444 1.28931 19.6061 1.84801 20.1563C2.39815 20.715 3.0643 21.1491 3.79491 21.4241C4.49547 21.6949 5.29474 21.8839 6.46385 21.9355C7.63699 21.9872 8.01103 21.9999 10.9979 21.9999C13.9848 21.9999 14.3587 21.9872 15.532 21.9355C16.701 21.8839 17.5046 21.6949 18.2008 21.4241C19.6793 20.8525 20.8483 19.6835 21.4199 18.2052C21.6905 17.5046 21.8797 16.7052 21.9312 15.5362C21.9828 14.3629 21.9957 13.9891 21.9957 11.0021C21.9957 8.01524 21.9913 7.64137 21.9398 6.46806ZM19.9587 15.4503C19.9113 16.5247 19.7308 17.1049 19.5804 17.4917C19.2108 18.4501 18.4501 19.2108 17.4917 19.5805C17.1049 19.7309 16.5205 19.9113 15.4503 19.9585C14.2899 20.0102 13.9419 20.023 11.0065 20.023C8.07113 20.023 7.71875 20.0102 6.56257 19.9585C5.48814 19.9113 4.90795 19.7309 4.52116 19.5805C4.04421 19.4042 3.61008 19.1248 3.2577 18.7595C2.89239 18.4028 2.61304 17.973 2.43677 17.4961C2.28635 17.1093 2.10588 16.5247 2.0587 15.4546C2.007 14.2943 1.99424 13.9461 1.99424 11.0107C1.99424 8.07534 2.007 7.72296 2.0587 6.56694C2.10588 5.49251 2.28635 4.91232 2.43677 4.52553C2.61304 4.04841 2.89239 3.61444 3.26206 3.2619C3.61864 2.89659 4.04841 2.61724 4.52552 2.44114C4.91231 2.29072 5.49687 2.11024 6.56693 2.0629C7.72731 2.01136 8.0755 1.99844 11.0107 1.99844C13.9504 1.99844 14.2984 2.01136 15.4546 2.0629C16.5291 2.11024 17.1092 2.29072 17.496 2.44114C17.973 2.61724 18.4071 2.89659 18.7595 3.2619C19.1248 3.61864 19.4042 4.04841 19.5804 4.52553C19.7308 4.91232 19.9113 5.49671 19.9587 6.56694C20.0102 7.72732 20.0231 8.07534 20.0231 11.0107C20.0231 13.9461 20.0102 14.2899 19.9587 15.4503Z" fill="#BF926B"/>
<path d="M11.0023 5.35059C7.88228 5.35059 5.35083 7.88187 5.35083 11.0021C5.35083 14.1223 7.88228 16.6536 11.0023 16.6536C14.1225 16.6536 16.6538 14.1223 16.6538 11.0021C16.6538 7.88187 14.1225 5.35059 11.0023 5.35059ZM11.0023 14.6681C8.9782 14.6681 7.33634 13.0264 7.33634 11.0021C7.33634 8.97779 8.9782 7.3361 11.0023 7.3361C13.0266 7.3361 14.6683 8.97779 14.6683 11.0021C14.6683 13.0264 13.0266 14.6681 11.0023 14.6681Z" fill="#BF926B"/>
<path d="M18.1965 5.12723C18.1965 5.85583 17.6058 6.4466 16.877 6.4466C16.1484 6.4466 15.5576 5.85583 15.5576 5.12723C15.5576 4.39846 16.1484 3.80786 16.877 3.80786C17.6058 3.80786 18.1965 4.39846 18.1965 5.12723Z" fill="#BF926B"/>
</svg>
